<svg width="471" height="34" viewBox="0 0 471 34" fill="none" xmlns="http://www.w3.org/2000/svg">
<path d="M0.24575 5.8V1.672H7.95775V25H3.34975V5.8H0.24575ZM12.3835 13.032C12.3835 9.34133 13.0448 6.45067 14.3675 4.36C15.7115 2.26933 17.9302 1.224 21.0235 1.224C24.1168 1.224 26.3248 2.26933 27.6475 4.36C28.9915 6.45067 29.6635 9.34133 29.6635 13.032C29.6635 16.744 28.9915 19.656 27.6475 21.768C26.3248 23.88 24.1168 24.936 21.0235 24.936C17.9302 24.936 15.7115 23.88 14.3675 21.768C13.0448 19.656 12.3835 16.744 12.3835 13.032ZM25.2475 13.032C25.2475 11.4533 25.1408 10.1307 24.9275 9.064C24.7355 7.976 24.3302 7.09067 23.7115 6.408C23.1142 5.72533 22.2182 5.384 21.0235 5.384C19.8288 5.384 18.9222 5.72533 18.3035 6.408C17.7062 7.09067 17.3008 7.976 17.0875 9.064C16.8955 10.1307 16.7995 11.4533 16.7995 13.032C16.7995 14.6533 16.8955 16.0187 17.0875 17.128C17.2795 18.216 17.6848 19.1013 18.3035 19.784C18.9222 20.4453 19.8288 20.776 21.0235 20.776C22.2182 20.776 23.1248 20.4453 23.7435 19.784C24.3622 19.1013 24.7675 18.216 24.9595 17.128C25.1515 16.0187 25.2475 14.6533 25.2475 13.032ZM33.071 13.032C33.071 9.34133 33.7323 6.45067 35.055 4.36C36.399 2.26933 38.6177 1.224 41.711 1.224C44.8043 1.224 47.0123 2.26933 48.335 4.36C49.679 6.45067 50.351 9.34133 50.351 13.032C50.351 16.744 49.679 19.656 48.335 21.768C47.0123 23.88 44.8043 24.936 41.711 24.936C38.6177 24.936 36.399 23.88 35.055 21.768C33.7323 19.656 33.071 16.744 33.071 13.032ZM45.935 13.032C45.935 11.4533 45.8283 10.1307 45.615 9.064C45.423 7.976 45.0177 7.09067 44.399 6.408C43.8017 5.72533 42.9057 5.384 41.711 5.384C40.5163 5.384 39.6097 5.72533 38.991 6.408C38.3937 7.09067 37.9883 7.976 37.775 9.064C37.583 10.1307 37.487 11.4533 37.487 13.032C37.487 14.6533 37.583 16.0187 37.775 17.128C37.967 18.216 38.3723 19.1013 38.991 19.784C39.6097 20.4453 40.5163 20.776 41.711 20.776C42.9057 20.776 43.8123 20.4453 44.431 19.784C45.0497 19.1013 45.455 18.216 45.647 17.128C45.839 16.0187 45.935 14.6533 45.935 13.032ZM77.0955 2.664V6.28H71.1435V25H66.6635V6.28H60.7115V2.664H77.0955ZM90.3483 7.016C91.6923 7.016 92.8869 7.31467 93.9323 7.912C94.9776 8.488 95.7883 9.352 96.3643 10.504C96.9616 11.6347 97.2603 13 97.2603 14.6V25H92.7803V15.208C92.7803 13.8 92.4283 12.7227 91.7243 11.976C91.0203 11.208 90.0603 10.824 88.8443 10.824C87.6069 10.824 86.6256 11.208 85.9003 11.976C85.1963 12.7227 84.8443 13.8 84.8443 15.208V25H80.3643V1.32H84.8443V9.48C85.4203 8.712 86.1883 8.11467 87.1483 7.688C88.1083 7.24 89.1749 7.016 90.3483 7.016ZM109.393 25.288C107.686 25.288 106.15 24.9147 104.785 24.168C103.419 23.4 102.342 22.3227 101.553 20.936C100.785 19.5493 100.401 17.9493 100.401 16.136C100.401 14.3227 100.795 12.7227 101.585 11.336C102.395 9.94933 103.494 8.88267 104.881 8.136C106.267 7.368 107.814 6.984 109.521 6.984C111.227 6.984 112.774 7.368 114.161 8.136C115.547 8.88267 116.635 9.94933 117.425 11.336C118.235 12.7227 118.641 14.3227 118.641 16.136C118.641 17.9493 118.225 19.5493 117.392 20.936C116.582 22.3227 115.473 23.4 114.065 24.168C112.678 24.9147 111.121 25.288 109.393 25.288ZM109.393 21.384C110.203 21.384 110.961 21.192 111.665 20.808C112.39 20.4027 112.966 19.8053 113.393 19.016C113.819 18.2267 114.033 17.2667 114.033 16.136C114.033 14.4507 113.585 13.16 112.689 12.264C111.814 11.3467 110.737 10.888 109.457 10.888C108.177 10.888 107.099 11.3467 106.225 12.264C105.371 13.16 104.945 14.4507 104.945 16.136C104.945 17.8213 105.361 19.1227 106.193 20.04C107.046 20.936 108.113 21.384 109.393 21.384ZM138.663 7.272V25H134.151V22.76C133.575 23.528 132.817 24.136 131.879 24.584C130.961 25.0107 129.959 25.224 128.871 25.224C127.484 25.224 126.257 24.936 125.191 24.36C124.124 23.7627 123.281 22.8987 122.663 21.768C122.065 20.616 121.767 19.2507 121.767 17.672V7.272H126.247V17.032C126.247 18.44 126.599 19.528 127.303 20.296C128.007 21.0427 128.967 21.416 130.183 21.416C131.42 21.416 132.391 21.0427 133.095 20.296C133.799 19.528 134.151 18.44 134.151 17.032V7.272H138.663ZM149.867 25.288C148.416 25.288 147.115 25.032 145.963 24.52C144.811 23.9867 143.894 23.272 143.211 22.376C142.55 21.48 142.187 20.488 142.123 19.4H146.635C146.72 20.0827 147.051 20.648 147.627 21.096C148.224 21.544 148.96 21.768 149.835 21.768C150.688 21.768 151.35 21.5973 151.819 21.256C152.31 20.9147 152.555 20.4773 152.555 19.944C152.555 19.368 152.256 18.9413 151.659 18.664C151.083 18.3653 150.155 18.0453 148.875 17.704C147.552 17.384 146.464 17.0533 145.611 16.712C144.779 16.3707 144.054 15.848 143.435 15.144C142.838 14.44 142.539 13.4907 142.539 12.296C142.539 11.3147 142.816 10.4187 143.371 9.608C143.947 8.79733 144.758 8.15733 145.803 7.688C146.87 7.21867 148.118 6.984 149.547 6.984C151.659 6.984 153.344 7.51733 154.603 8.584C155.862 9.62933 156.555 11.048 156.683 12.84H152.395C152.331 12.136 152.032 11.5813 151.499 11.176C150.987 10.7493 150.294 10.536 149.419 10.536C148.608 10.536 147.979 10.6853 147.531 10.984C147.104 11.2827 146.891 11.6987 146.891 12.232C146.891 12.8293 147.19 13.288 147.787 13.608C148.384 13.9067 149.312 14.216 150.571 14.536C151.851 14.856 152.907 15.1867 153.739 15.528C154.571 15.8693 155.286 16.4027 155.883 17.128C156.502 17.832 156.822 18.7707 156.843 19.944C156.843 20.968 156.555 21.8853 155.979 22.696C155.424 23.5067 154.614 24.1467 153.547 24.616C152.502 25.064 151.275 25.288 149.867 25.288ZM159.368 16.072C159.368 14.28 159.72 12.6907 160.424 11.304C161.15 9.91733 162.121 8.85067 163.337 8.104C164.574 7.35733 165.95 6.984 167.465 6.984C168.787 6.984 169.939 7.25067 170.921 7.784C171.923 8.31733 172.723 8.98933 173.321 9.8V7.272H177.833V25H173.321V22.408C172.745 23.24 171.945 23.9333 170.921 24.488C169.918 25.0213 168.755 25.288 167.433 25.288C165.939 25.288 164.574 24.904 163.337 24.136C162.121 23.368 161.15 22.2907 160.424 20.904C159.72 19.496 159.368 17.8853 159.368 16.072ZM173.321 16.136C173.321 15.048 173.107 14.12 172.681 13.352C172.254 12.5627 171.678 11.9653 170.953 11.56C170.227 11.1333 169.449 10.92 168.617 10.92C167.785 10.92 167.017 11.1227 166.312 11.528C165.609 11.9333 165.033 12.5307 164.585 13.32C164.158 14.088 163.945 15.0053 163.945 16.072C163.945 17.1387 164.158 18.0773 164.585 18.888C165.033 19.6773 165.609 20.2853 166.312 20.712C167.038 21.1387 167.806 21.352 168.617 21.352C169.449 21.352 170.227 21.1493 170.953 20.744C171.678 20.3173 172.254 19.72 172.681 18.952C173.107 18.1627 173.321 17.224 173.321 16.136ZM192.032 7.016C194.144 7.016 195.851 7.688 197.152 9.032C198.453 10.3547 199.104 12.2107 199.104 14.6V25H194.624V15.208C194.624 13.8 194.272 12.7227 193.568 11.976C192.864 11.208 191.904 10.824 190.688 10.824C189.451 10.824 188.469 11.208 187.744 11.976C187.04 12.7227 186.688 13.8 186.688 15.208V25H182.208V7.272H186.688V9.48C187.285 8.712 188.043 8.11467 188.96 7.688C189.899 7.24 190.923 7.016 192.032 7.016ZM202.212 16.072C202.212 14.28 202.564 12.6907 203.268 11.304C203.994 9.91733 204.975 8.85067 206.212 8.104C207.45 7.35733 208.826 6.984 210.34 6.984C211.492 6.984 212.591 7.24 213.636 7.752C214.682 8.24267 215.514 8.904 216.132 9.736V1.32H220.676V25H216.132V22.376C215.578 23.2507 214.799 23.9547 213.796 24.488C212.794 25.0213 211.631 25.288 210.308 25.288C208.815 25.288 207.45 24.904 206.212 24.136C204.975 23.368 203.994 22.2907 203.268 20.904C202.564 19.496 202.212 17.8853 202.212 16.072ZM216.164 16.136C216.164 15.048 215.951 14.12 215.524 13.352C215.098 12.5627 214.522 11.9653 213.796 11.56C213.071 11.1333 212.292 10.92 211.46 10.92C210.628 10.92 209.86 11.1227 209.156 11.528C208.452 11.9333 207.876 12.5307 207.428 13.32C207.002 14.088 206.788 15.0053 206.788 16.072C206.788 17.1387 207.002 18.0773 207.428 18.888C207.876 19.6773 208.452 20.2853 209.156 20.712C209.882 21.1387 210.65 21.352 211.46 21.352C212.292 21.352 213.071 21.1493 213.796 20.744C214.522 20.3173 215.098 19.72 215.524 18.952C215.951 18.1627 216.164 17.224 216.164 16.136ZM240.389 25.224C238.831 25.224 237.423 24.9573 236.165 24.424C234.927 23.8907 233.946 23.1227 233.221 22.12C232.495 21.1173 232.122 19.9333 232.101 18.568H236.901C236.965 19.4853 237.285 20.2107 237.861 20.744C238.458 21.2773 239.269 21.544 240.293 21.544C241.338 21.544 242.159 21.2987 242.757 20.808C243.354 20.296 243.653 19.6347 243.653 18.824C243.653 18.1627 243.45 17.6187 243.045 17.192C242.639 16.7653 242.127 16.4347 241.509 16.2C240.911 15.944 240.079 15.6667 239.013 15.368C237.562 14.9413 236.378 14.5253 235.461 14.12C234.565 13.6933 233.786 13.064 233.125 12.232C232.485 11.3787 232.165 10.248 232.165 8.84C232.165 7.51733 232.495 6.36533 233.157 5.384C233.818 4.40267 234.746 3.656 235.941 3.144C237.135 2.61067 238.501 2.344 240.037 2.344C242.341 2.344 244.207 2.90933 245.637 4.04C247.087 5.14933 247.887 6.70667 248.037 8.712H243.109C243.066 7.944 242.735 7.31467 242.117 6.824C241.519 6.312 240.719 6.056 239.717 6.056C238.842 6.056 238.138 6.28 237.605 6.728C237.093 7.176 236.837 7.82667 236.837 8.68C236.837 9.27733 237.029 9.77867 237.413 10.184C237.818 10.568 238.309 10.888 238.885 11.144C239.482 11.3787 240.314 11.656 241.381 11.976C242.831 12.4027 244.015 12.8293 244.933 13.256C245.85 13.6827 246.639 14.3227 247.301 15.176C247.962 16.0293 248.293 17.1493 248.293 18.536C248.293 19.7307 247.983 20.84 247.365 21.864C246.746 22.888 245.839 23.7093 244.645 24.328C243.45 24.9253 242.031 25.224 240.389 25.224ZM260.049 25.288C258.342 25.288 256.806 24.9147 255.441 24.168C254.075 23.4 252.998 22.3227 252.209 20.936C251.441 19.5493 251.057 17.9493 251.057 16.136C251.057 14.3227 251.451 12.7227 252.241 11.336C253.051 9.94933 254.15 8.88267 255.537 8.136C256.923 7.368 258.47 6.984 260.177 6.984C261.883 6.984 263.43 7.368 264.817 8.136C266.203 8.88267 267.291 9.94933 268.081 11.336C268.891 12.7227 269.297 14.3227 269.297 16.136C269.297 17.9493 268.881 19.5493 268.049 20.936C267.238 22.3227 266.129 23.4 264.721 24.168C263.334 24.9147 261.777 25.288 260.049 25.288ZM260.049 21.384C260.859 21.384 261.617 21.192 262.321 20.808C263.046 20.4027 263.622 19.8053 264.049 19.016C264.475 18.2267 264.689 17.2667 264.689 16.136C264.689 14.4507 264.241 13.16 263.345 12.264C262.47 11.3467 261.393 10.888 260.113 10.888C258.833 10.888 257.755 11.3467 256.881 12.264C256.027 13.16 255.601 14.4507 255.601 16.136C255.601 17.8213 256.017 19.1227 256.849 20.04C257.702 20.936 258.769 21.384 260.049 21.384ZM282.407 7.016C284.519 7.016 286.226 7.688 287.527 9.032C288.828 10.3547 289.479 12.2107 289.479 14.6V25H284.999V15.208C284.999 13.8 284.647 12.7227 283.943 11.976C283.239 11.208 282.279 10.824 281.063 10.824C279.826 10.824 278.844 11.208 278.119 11.976C277.415 12.7227 277.063 13.8 277.063 15.208V25H272.583V7.272H277.063V9.48C277.66 8.712 278.418 8.11467 279.335 7.688C280.274 7.24 281.298 7.016 282.407 7.016ZM300.683 6.984C302.006 6.984 303.169 7.25067 304.171 7.784C305.174 8.296 305.963 8.968 306.539 9.8V7.272H311.051V25.128C311.051 26.7707 310.721 28.232 310.059 29.512C309.398 30.8133 308.406 31.8373 307.083 32.584C305.761 33.352 304.161 33.736 302.283 33.736C299.766 33.736 297.697 33.1493 296.075 31.976C294.475 30.8027 293.569 29.2027 293.355 27.176H297.803C298.038 27.9867 298.539 28.6267 299.307 29.096C300.097 29.5867 301.046 29.832 302.155 29.832C303.457 29.832 304.513 29.4373 305.323 28.648C306.134 27.88 306.539 26.7067 306.539 25.128V22.376C305.963 23.208 305.163 23.9013 304.139 24.456C303.137 25.0107 301.985 25.288 300.683 25.288C299.19 25.288 297.825 24.904 296.587 24.136C295.35 23.368 294.369 22.2907 293.643 20.904C292.939 19.496 292.587 17.8853 292.587 16.072C292.587 14.28 292.939 12.6907 293.643 11.304C294.369 9.91733 295.339 8.85067 296.555 8.104C297.793 7.35733 299.169 6.984 300.683 6.984ZM306.539 16.136C306.539 15.048 306.326 14.12 305.899 13.352C305.473 12.5627 304.897 11.9653 304.171 11.56C303.446 11.1333 302.667 10.92 301.835 10.92C301.003 10.92 300.235 11.1227 299.531 11.528C298.827 11.9333 298.251 12.5307 297.803 13.32C297.377 14.088 297.163 15.0053 297.163 16.072C297.163 17.1387 297.377 18.0773 297.803 18.888C298.251 19.6773 298.827 20.2853 299.531 20.712C300.257 21.1387 301.025 21.352 301.835 21.352C302.667 21.352 303.446 21.1493 304.171 20.744C304.897 20.3173 305.473 19.72 305.899 18.952C306.326 18.1627 306.539 17.224 306.539 16.136ZM322.211 25.288C320.76 25.288 319.459 25.032 318.307 24.52C317.155 23.9867 316.237 23.272 315.555 22.376C314.893 21.48 314.531 20.488 314.467 19.4H318.979C319.064 20.0827 319.395 20.648 319.971 21.096C320.568 21.544 321.304 21.768 322.179 21.768C323.032 21.768 323.693 21.5973 324.163 21.256C324.653 20.9147 324.899 20.4773 324.899 19.944C324.899 19.368 324.6 18.9413 324.003 18.664C323.427 18.3653 322.499 18.0453 321.219 17.704C319.896 17.384 318.808 17.0533 317.955 16.712C317.123 16.3707 316.397 15.848 315.779 15.144C315.181 14.44 314.883 13.4907 314.883 12.296C314.883 11.3147 315.16 10.4187 315.715 9.608C316.291 8.79733 317.101 8.15733 318.147 7.688C319.213 7.21867 320.461 6.984 321.891 6.984C324.003 6.984 325.688 7.51733 326.947 8.584C328.205 9.62933 328.899 11.048 329.027 12.84H324.739C324.675 12.136 324.376 11.5813 323.843 11.176C323.331 10.7493 322.637 10.536 321.763 10.536C320.952 10.536 320.323 10.6853 319.875 10.984C319.448 11.2827 319.235 11.6987 319.235 12.232C319.235 12.8293 319.533 13.288 320.131 13.608C320.728 13.9067 321.656 14.216 322.915 14.536C324.195 14.856 325.251 15.1867 326.083 15.528C326.915 15.8693 327.629 16.4027 328.227 17.128C328.845 17.832 329.165 18.7707 329.187 19.944C329.187 20.968 328.899 21.8853 328.323 22.696C327.768 23.5067 326.957 24.1467 325.891 24.616C324.845 25.064 323.619 25.288 322.211 25.288ZM337.76 20.296L334.016 29.288H331.136L333.216 20.296H337.76ZM347.462 16.072C347.462 14.28 347.814 12.6907 348.518 11.304C349.244 9.91733 350.214 8.85067 351.43 8.104C352.668 7.35733 354.044 6.984 355.558 6.984C356.881 6.984 358.033 7.25067 359.014 7.784C360.017 8.31733 360.817 8.98933 361.414 9.8V7.272H365.926V25H361.414V22.408C360.838 23.24 360.038 23.9333 359.014 24.488C358.012 25.0213 356.849 25.288 355.526 25.288C354.033 25.288 352.668 24.904 351.43 24.136C350.214 23.368 349.244 22.2907 348.518 20.904C347.814 19.496 347.462 17.8853 347.462 16.072ZM361.414 16.136C361.414 15.048 361.201 14.12 360.774 13.352C360.348 12.5627 359.772 11.9653 359.046 11.56C358.321 11.1333 357.542 10.92 356.71 10.92C355.878 10.92 355.11 11.1227 354.406 11.528C353.702 11.9333 353.126 12.5307 352.678 13.32C352.252 14.088 352.038 15.0053 352.038 16.072C352.038 17.1387 352.252 18.0773 352.678 18.888C353.126 19.6773 353.702 20.2853 354.406 20.712C355.132 21.1387 355.9 21.352 356.71 21.352C357.542 21.352 358.321 21.1493 359.046 20.744C359.772 20.3173 360.348 19.72 360.774 18.952C361.201 18.1627 361.414 17.224 361.414 16.136ZM369.15 16.072C369.15 14.28 369.502 12.6907 370.206 11.304C370.931 9.91733 371.912 8.85067 373.15 8.104C374.387 7.35733 375.763 6.984 377.278 6.984C378.43 6.984 379.528 7.24 380.574 7.752C381.619 8.24267 382.451 8.904 383.07 9.736V1.32H387.614V25H383.07V22.376C382.515 23.2507 381.736 23.9547 380.734 24.488C379.731 25.0213 378.568 25.288 377.246 25.288C375.752 25.288 374.387 24.904 373.15 24.136C371.912 23.368 370.931 22.2907 370.206 20.904C369.502 19.496 369.15 17.8853 369.15 16.072ZM383.102 16.136C383.102 15.048 382.888 14.12 382.462 13.352C382.035 12.5627 381.459 11.9653 380.734 11.56C380.008 11.1333 379.23 10.92 378.398 10.92C377.566 10.92 376.798 11.1227 376.094 11.528C375.39 11.9333 374.814 12.5307 374.366 13.32C373.939 14.088 373.726 15.0053 373.726 16.072C373.726 17.1387 373.939 18.0773 374.366 18.888C374.814 19.6773 375.39 20.2853 376.094 20.712C376.819 21.1387 377.587 21.352 378.398 21.352C379.23 21.352 380.008 21.1493 380.734 20.744C381.459 20.3173 382.035 19.72 382.462 18.952C382.888 18.1627 383.102 17.224 383.102 16.136ZM405.621 11.688V15.464H392.053V11.688H405.621ZM418.774 10.952H415.67V25H411.126V10.952H409.11V7.272H411.126V6.376C411.126 4.2 411.744 2.6 412.982 1.576C414.219 0.551999 416.086 0.0719992 418.582 0.136V3.912C417.494 3.89067 416.736 4.072 416.31 4.456C415.883 4.84 415.67 5.53333 415.67 6.536V7.272H418.774V10.952ZM426.157 10.024C426.733 9.08533 427.479 8.34933 428.397 7.816C429.335 7.28267 430.402 7.016 431.597 7.016V11.72H430.413C429.005 11.72 427.938 12.0507 427.213 12.712C426.509 13.3733 426.157 14.5253 426.157 16.168V25H421.677V7.272H426.157V10.024ZM451.094 15.752C451.094 16.392 451.052 16.968 450.966 17.48H438.006C438.113 18.76 438.561 19.7627 439.35 20.488C440.14 21.2133 441.11 21.576 442.262 21.576C443.926 21.576 445.11 20.8613 445.814 19.432H450.646C450.134 21.1387 449.153 22.5467 447.702 23.656C446.252 24.744 444.47 25.288 442.358 25.288C440.652 25.288 439.116 24.9147 437.75 24.168C436.406 23.4 435.35 22.3227 434.582 20.936C433.836 19.5493 433.462 17.9493 433.462 16.136C433.462 14.3013 433.836 12.6907 434.582 11.304C435.329 9.91733 436.374 8.85067 437.718 8.104C439.062 7.35733 440.609 6.984 442.358 6.984C444.044 6.984 445.548 7.34667 446.87 8.072C448.214 8.79733 449.249 9.832 449.974 11.176C450.721 12.4987 451.094 14.024 451.094 15.752ZM446.454 14.472C446.433 13.32 446.017 12.4027 445.206 11.72C444.396 11.016 443.404 10.664 442.23 10.664C441.121 10.664 440.182 11.0053 439.414 11.688C438.668 12.3493 438.209 13.2773 438.038 14.472H446.454ZM470.844 15.752C470.844 16.392 470.802 16.968 470.716 17.48H457.756C457.863 18.76 458.311 19.7627 459.1 20.488C459.89 21.2133 460.86 21.576 462.012 21.576C463.676 21.576 464.86 20.8613 465.564 19.432H470.396C469.884 21.1387 468.903 22.5467 467.452 23.656C466.002 24.744 464.22 25.288 462.108 25.288C460.402 25.288 458.866 24.9147 457.5 24.168C456.156 23.4 455.1 22.3227 454.332 20.936C453.586 19.5493 453.212 17.9493 453.212 16.136C453.212 14.3013 453.586 12.6907 454.332 11.304C455.079 9.91733 456.124 8.85067 457.468 8.104C458.812 7.35733 460.359 6.984 462.108 6.984C463.794 6.984 465.298 7.34667 466.62 8.072C467.964 8.79733 468.999 9.832 469.724 11.176C470.471 12.4987 470.844 14.024 470.844 15.752ZM466.204 14.472C466.183 13.32 465.767 12.4027 464.956 11.72C464.146 11.016 463.154 10.664 461.98 10.664C460.871 10.664 459.932 11.0053 459.164 11.688C458.418 12.3493 457.959 13.2773 457.788 14.472H466.204Z" fill="white"/>
</svg>
