<svg width="554" height="35" viewBox="0 0 554 35" fill="none" xmlns="http://www.w3.org/2000/svg">
<path d="M11.576 26.224C9.48533 26.224 7.56533 25.7333 5.816 24.752C4.06667 23.7707 2.68 22.416 1.656 20.688C0.632 18.9387 0.12 16.9653 0.12 14.768C0.12 12.592 0.632 10.64 1.656 8.912C2.68 7.16267 4.06667 5.79733 5.816 4.816C7.56533 3.83467 9.48533 3.344 11.576 3.344C13.688 3.344 15.608 3.83467 17.336 4.816C19.0853 5.79733 20.4613 7.16267 21.464 8.912C22.488 10.64 23 12.592 23 14.768C23 16.9653 22.488 18.9387 21.464 20.688C20.4613 22.416 19.0853 23.7707 17.336 24.752C15.5867 25.7333 13.6667 26.224 11.576 26.224ZM11.576 22.224C12.92 22.224 14.104 21.9253 15.128 21.328C16.152 20.7093 16.952 19.8347 17.528 18.704C18.104 17.5733 18.392 16.2613 18.392 14.768C18.392 13.2747 18.104 11.9733 17.528 10.864C16.952 9.73333 16.152 8.86933 15.128 8.272C14.104 7.67467 12.92 7.376 11.576 7.376C10.232 7.376 9.03733 7.67467 7.992 8.272C6.968 8.86933 6.168 9.73333 5.592 10.864C5.016 11.9733 4.728 13.2747 4.728 14.768C4.728 16.2613 5.016 17.5733 5.592 18.704C6.168 19.8347 6.968 20.7093 7.992 21.328C9.03733 21.9253 10.232 22.224 11.576 22.224ZM33.725 21.872L38.205 8.272H42.973L36.413 26H30.973L24.445 8.272H29.245L33.725 21.872ZM61.9693 16.752C61.9693 17.392 61.9266 17.968 61.8413 18.48H48.8813C48.9879 19.76 49.4359 20.7627 50.2253 21.488C51.0146 22.2133 51.9853 22.576 53.1373 22.576C54.8013 22.576 55.9853 21.8613 56.6893 20.432H61.5213C61.0093 22.1387 60.0279 23.5467 58.5773 24.656C57.1266 25.744 55.3453 26.288 53.2333 26.288C51.5266 26.288 49.9906 25.9147 48.6253 25.168C47.2813 24.4 46.2253 23.3227 45.4573 21.936C44.7106 20.5493 44.3372 18.9493 44.3372 17.136C44.3372 15.3013 44.7106 13.6907 45.4573 12.304C46.2039 10.9173 47.2493 9.85067 48.5933 9.104C49.9373 8.35733 51.4839 7.984 53.2333 7.984C54.9186 7.984 56.4226 8.34667 57.7453 9.072C59.0893 9.79733 60.1239 10.832 60.8493 12.176C61.5959 13.4987 61.9693 15.024 61.9693 16.752ZM57.3293 15.472C57.3079 14.32 56.8919 13.4027 56.0813 12.72C55.2706 12.016 54.2786 11.664 53.1053 11.664C51.9959 11.664 51.0573 12.0053 50.2893 12.688C49.5426 13.3493 49.0839 14.2773 48.9133 15.472H57.3293ZM69.7193 11.024C70.2953 10.0853 71.0419 9.34933 71.9593 8.816C72.8979 8.28267 73.9646 8.016 75.1593 8.016V12.72H73.9753C72.5673 12.72 71.5006 13.0507 70.7753 13.712C70.0713 14.3733 69.7193 15.5253 69.7193 17.168V26H65.2393V8.272H69.7193V11.024ZM91.0178 11.952V20.528C91.0178 21.1253 91.1564 21.5627 91.4338 21.84C91.7324 22.096 92.2231 22.224 92.9058 22.224H94.9858V26H92.1698C88.3938 26 86.5058 24.1653 86.5058 20.496V11.952H84.3938V8.272H86.5058V3.888H91.0178V8.272H94.9858V11.952H91.0178ZM108.192 8.016C109.536 8.016 110.731 8.31467 111.776 8.912C112.821 9.488 113.632 10.352 114.208 11.504C114.805 12.6347 115.104 14 115.104 15.6V26H110.624V16.208C110.624 14.8 110.272 13.7227 109.568 12.976C108.864 12.208 107.904 11.824 106.688 11.824C105.451 11.824 104.469 12.208 103.744 12.976C103.04 13.7227 102.688 14.8 102.688 16.208V26H98.208V2.32H102.688V10.48C103.264 9.712 104.032 9.11467 104.992 8.688C105.952 8.24 107.019 8.016 108.192 8.016ZM127.236 26.288C125.53 26.288 123.994 25.9147 122.628 25.168C121.263 24.4 120.186 23.3227 119.396 21.936C118.628 20.5493 118.244 18.9493 118.244 17.136C118.244 15.3227 118.639 13.7227 119.428 12.336C120.239 10.9493 121.338 9.88267 122.724 9.136C124.111 8.368 125.658 7.984 127.364 7.984C129.071 7.984 130.618 8.368 132.004 9.136C133.391 9.88267 134.479 10.9493 135.268 12.336C136.079 13.7227 136.484 15.3227 136.484 17.136C136.484 18.9493 136.068 20.5493 135.236 21.936C134.426 23.3227 133.316 24.4 131.908 25.168C130.522 25.9147 128.964 26.288 127.236 26.288ZM127.236 22.384C128.047 22.384 128.804 22.192 129.508 21.808C130.234 21.4027 130.81 20.8053 131.236 20.016C131.663 19.2267 131.876 18.2667 131.876 17.136C131.876 15.4507 131.428 14.16 130.532 13.264C129.658 12.3467 128.58 11.888 127.3 11.888C126.02 11.888 124.943 12.3467 124.068 13.264C123.215 14.16 122.788 15.4507 122.788 17.136C122.788 18.8213 123.204 20.1227 124.036 21.04C124.89 21.936 125.956 22.384 127.236 22.384ZM156.507 8.272V26H151.995V23.76C151.419 24.528 150.661 25.136 149.723 25.584C148.805 26.0107 147.803 26.224 146.715 26.224C145.328 26.224 144.101 25.936 143.035 25.36C141.968 24.7627 141.125 23.8987 140.507 22.768C139.909 21.616 139.611 20.2507 139.611 18.672V8.272H144.091V18.032C144.091 19.44 144.443 20.528 145.147 21.296C145.851 22.0427 146.811 22.416 148.027 22.416C149.264 22.416 150.235 22.0427 150.939 21.296C151.643 20.528 151.995 19.44 151.995 18.032V8.272H156.507ZM167.711 26.288C166.26 26.288 164.959 26.032 163.807 25.52C162.655 24.9867 161.737 24.272 161.055 23.376C160.393 22.48 160.031 21.488 159.967 20.4H164.479C164.564 21.0827 164.895 21.648 165.471 22.096C166.068 22.544 166.804 22.768 167.679 22.768C168.532 22.768 169.193 22.5973 169.663 22.256C170.153 21.9147 170.399 21.4773 170.399 20.944C170.399 20.368 170.1 19.9413 169.503 19.664C168.927 19.3653 167.999 19.0453 166.719 18.704C165.396 18.384 164.308 18.0533 163.455 17.712C162.623 17.3707 161.897 16.848 161.279 16.144C160.681 15.44 160.383 14.4907 160.383 13.296C160.383 12.3147 160.66 11.4187 161.215 10.608C161.791 9.79733 162.601 9.15733 163.647 8.688C164.713 8.21867 165.961 7.984 167.391 7.984C169.503 7.984 171.188 8.51733 172.447 9.584C173.705 10.6293 174.399 12.048 174.527 13.84H170.239C170.175 13.136 169.876 12.5813 169.343 12.176C168.831 11.7493 168.137 11.536 167.263 11.536C166.452 11.536 165.823 11.6853 165.375 11.984C164.948 12.2827 164.735 12.6987 164.735 13.232C164.735 13.8293 165.033 14.288 165.631 14.608C166.228 14.9067 167.156 15.216 168.415 15.536C169.695 15.856 170.751 16.1867 171.583 16.528C172.415 16.8693 173.129 17.4027 173.727 18.128C174.345 18.832 174.665 19.7707 174.687 20.944C174.687 21.968 174.399 22.8853 173.823 23.696C173.268 24.5067 172.457 25.1467 171.391 25.616C170.345 26.064 169.119 26.288 167.711 26.288ZM177.212 17.072C177.212 15.28 177.564 13.6907 178.268 12.304C178.994 10.9173 179.964 9.85067 181.18 9.104C182.418 8.35733 183.794 7.984 185.308 7.984C186.631 7.984 187.783 8.25067 188.764 8.784C189.767 9.31733 190.567 9.98933 191.164 10.8V8.272H195.676V26H191.164V23.408C190.588 24.24 189.788 24.9333 188.764 25.488C187.762 26.0213 186.599 26.288 185.276 26.288C183.783 26.288 182.418 25.904 181.18 25.136C179.964 24.368 178.994 23.2907 178.268 21.904C177.564 20.496 177.212 18.8853 177.212 17.072ZM191.164 17.136C191.164 16.048 190.951 15.12 190.524 14.352C190.098 13.5627 189.522 12.9653 188.796 12.56C188.071 12.1333 187.292 11.92 186.46 11.92C185.628 11.92 184.86 12.1227 184.156 12.528C183.452 12.9333 182.876 13.5307 182.428 14.32C182.002 15.088 181.788 16.0053 181.788 17.072C181.788 18.1387 182.002 19.0773 182.428 19.888C182.876 20.6773 183.452 21.2853 184.156 21.712C184.882 22.1387 185.65 22.352 186.46 22.352C187.292 22.352 188.071 22.1493 188.796 21.744C189.522 21.3173 190.098 20.72 190.524 19.952C190.951 19.1627 191.164 18.224 191.164 17.136ZM209.876 8.016C211.988 8.016 213.694 8.688 214.996 10.032C216.297 11.3547 216.948 13.2107 216.948 15.6V26H212.468V16.208C212.468 14.8 212.116 13.7227 211.412 12.976C210.708 12.208 209.748 11.824 208.532 11.824C207.294 11.824 206.313 12.208 205.588 12.976C204.884 13.7227 204.532 14.8 204.532 16.208V26H200.052V8.272H204.532V10.48C205.129 9.712 205.886 9.11467 206.804 8.688C207.742 8.24 208.766 8.016 209.876 8.016ZM220.056 17.072C220.056 15.28 220.408 13.6907 221.112 12.304C221.837 10.9173 222.819 9.85067 224.056 9.104C225.293 8.35733 226.669 7.984 228.184 7.984C229.336 7.984 230.435 8.24 231.48 8.752C232.525 9.24267 233.357 9.904 233.976 10.736V2.32H238.52V26H233.976V23.376C233.421 24.2507 232.643 24.9547 231.64 25.488C230.637 26.0213 229.475 26.288 228.152 26.288C226.659 26.288 225.293 25.904 224.056 25.136C222.819 24.368 221.837 23.2907 221.112 21.904C220.408 20.496 220.056 18.8853 220.056 17.072ZM234.008 17.136C234.008 16.048 233.795 15.12 233.368 14.352C232.941 13.5627 232.365 12.9653 231.64 12.56C230.915 12.1333 230.136 11.92 229.304 11.92C228.472 11.92 227.704 12.1227 227 12.528C226.296 12.9333 225.72 13.5307 225.272 14.32C224.845 15.088 224.632 16.0053 224.632 17.072C224.632 18.1387 224.845 19.0773 225.272 19.888C225.72 20.6773 226.296 21.2853 227 21.712C227.725 22.1387 228.493 22.352 229.304 22.352C230.136 22.352 230.915 22.1493 231.64 21.744C232.365 21.3173 232.941 20.72 233.368 19.952C233.795 19.1627 234.008 18.224 234.008 17.136ZM249.68 26.288C248.229 26.288 246.928 26.032 245.776 25.52C244.624 24.9867 243.706 24.272 243.024 23.376C242.362 22.48 242 21.488 241.936 20.4H246.448C246.533 21.0827 246.864 21.648 247.44 22.096C248.037 22.544 248.773 22.768 249.648 22.768C250.501 22.768 251.162 22.5973 251.632 22.256C252.122 21.9147 252.368 21.4773 252.368 20.944C252.368 20.368 252.069 19.9413 251.472 19.664C250.896 19.3653 249.968 19.0453 248.688 18.704C247.365 18.384 246.277 18.0533 245.424 17.712C244.592 17.3707 243.866 16.848 243.248 16.144C242.65 15.44 242.352 14.4907 242.352 13.296C242.352 12.3147 242.629 11.4187 243.184 10.608C243.76 9.79733 244.57 9.15733 245.616 8.688C246.682 8.21867 247.93 7.984 249.36 7.984C251.472 7.984 253.157 8.51733 254.416 9.584C255.674 10.6293 256.368 12.048 256.496 13.84H252.208C252.144 13.136 251.845 12.5813 251.312 12.176C250.8 11.7493 250.106 11.536 249.232 11.536C248.421 11.536 247.792 11.6853 247.344 11.984C246.917 12.2827 246.704 12.6987 246.704 13.232C246.704 13.8293 247.002 14.288 247.6 14.608C248.197 14.9067 249.125 15.216 250.384 15.536C251.664 15.856 252.72 16.1867 253.552 16.528C254.384 16.8693 255.098 17.4027 255.696 18.128C256.314 18.832 256.634 19.7707 256.656 20.944C256.656 21.968 256.368 22.8853 255.792 23.696C255.237 24.5067 254.426 25.1467 253.36 25.616C252.314 26.064 251.088 26.288 249.68 26.288ZM272.438 10.832C273.014 10.0213 273.803 9.34933 274.806 8.816C275.83 8.26133 276.993 7.984 278.294 7.984C279.809 7.984 281.174 8.35733 282.39 9.104C283.627 9.85067 284.598 10.9173 285.302 12.304C286.027 13.6693 286.39 15.2587 286.39 17.072C286.39 18.8853 286.027 20.496 285.302 21.904C284.598 23.2907 283.627 24.368 282.39 25.136C281.174 25.904 279.809 26.288 278.294 26.288C276.993 26.288 275.841 26.0213 274.838 25.488C273.857 24.9547 273.057 24.2827 272.438 23.472V34.448H267.958V8.272H272.438V10.832ZM281.814 17.072C281.814 16.0053 281.59 15.088 281.142 14.32C280.715 13.5307 280.139 12.9333 279.414 12.528C278.71 12.1227 277.942 11.92 277.11 11.92C276.299 11.92 275.531 12.1333 274.806 12.56C274.102 12.9653 273.526 13.5627 273.078 14.352C272.651 15.1413 272.438 16.0693 272.438 17.136C272.438 18.2027 272.651 19.1307 273.078 19.92C273.526 20.7093 274.102 21.3173 274.806 21.744C275.531 22.1493 276.299 22.352 277.11 22.352C277.942 22.352 278.71 22.1387 279.414 21.712C280.139 21.2853 280.715 20.6773 281.142 19.888C281.59 19.0987 281.814 18.16 281.814 17.072ZM297.518 26.288C295.811 26.288 294.275 25.9147 292.91 25.168C291.544 24.4 290.467 23.3227 289.678 21.936C288.91 20.5493 288.526 18.9493 288.526 17.136C288.526 15.3227 288.92 13.7227 289.71 12.336C290.52 10.9493 291.619 9.88267 293.006 9.136C294.392 8.368 295.939 7.984 297.646 7.984C299.352 7.984 300.899 8.368 302.286 9.136C303.672 9.88267 304.76 10.9493 305.55 12.336C306.36 13.7227 306.766 15.3227 306.766 17.136C306.766 18.9493 306.35 20.5493 305.517 21.936C304.707 23.3227 303.598 24.4 302.19 25.168C300.803 25.9147 299.246 26.288 297.518 26.288ZM297.518 22.384C298.328 22.384 299.086 22.192 299.79 21.808C300.515 21.4027 301.091 20.8053 301.518 20.016C301.944 19.2267 302.158 18.2667 302.158 17.136C302.158 15.4507 301.71 14.16 300.814 13.264C299.939 12.3467 298.862 11.888 297.582 11.888C296.302 11.888 295.224 12.3467 294.35 13.264C293.496 14.16 293.07 15.4507 293.07 17.136C293.07 18.8213 293.486 20.1227 294.318 21.04C295.171 21.936 296.238 22.384 297.518 22.384ZM308.9 17.072C308.9 15.28 309.252 13.6907 309.956 12.304C310.681 10.9173 311.662 9.85067 312.9 9.104C314.137 8.35733 315.513 7.984 317.028 7.984C318.18 7.984 319.278 8.24 320.324 8.752C321.369 9.24267 322.201 9.904 322.82 10.736V2.32H327.364V26H322.82V23.376C322.265 24.2507 321.486 24.9547 320.484 25.488C319.481 26.0213 318.318 26.288 316.996 26.288C315.502 26.288 314.137 25.904 312.9 25.136C311.662 24.368 310.681 23.2907 309.956 21.904C309.252 20.496 308.9 18.8853 308.9 17.072ZM322.852 17.136C322.852 16.048 322.638 15.12 322.212 14.352C321.785 13.5627 321.209 12.9653 320.484 12.56C319.758 12.1333 318.98 11.92 318.148 11.92C317.316 11.92 316.548 12.1227 315.844 12.528C315.14 12.9333 314.564 13.5307 314.116 14.32C313.689 15.088 313.476 16.0053 313.476 17.072C313.476 18.1387 313.689 19.0773 314.116 19.888C314.564 20.6773 315.14 21.2853 315.844 21.712C316.569 22.1387 317.337 22.352 318.148 22.352C318.98 22.352 319.758 22.1493 320.484 21.744C321.209 21.3173 321.785 20.72 322.212 19.952C322.638 19.1627 322.852 18.224 322.852 17.136ZM330.587 17.136C330.587 15.3013 330.961 13.7013 331.707 12.336C332.454 10.9493 333.489 9.88267 334.811 9.136C336.134 8.368 337.649 7.984 339.355 7.984C341.553 7.984 343.366 8.53867 344.795 9.648C346.246 10.736 347.217 12.272 347.707 14.256H342.875C342.619 13.488 342.182 12.8907 341.563 12.464C340.966 12.016 340.219 11.792 339.323 11.792C338.043 11.792 337.03 12.2613 336.283 13.2C335.537 14.1173 335.163 15.4293 335.163 17.136C335.163 18.8213 335.537 20.1333 336.283 21.072C337.03 21.9893 338.043 22.448 339.323 22.448C341.137 22.448 342.321 21.6373 342.875 20.016H347.707C347.217 21.936 346.246 23.4613 344.795 24.592C343.345 25.7227 341.531 26.288 339.355 26.288C337.649 26.288 336.134 25.9147 334.811 25.168C333.489 24.4 332.454 23.3333 331.707 21.968C330.961 20.5813 330.587 18.9707 330.587 17.136ZM349.837 17.072C349.837 15.28 350.189 13.6907 350.893 12.304C351.619 10.9173 352.589 9.85067 353.805 9.104C355.043 8.35733 356.419 7.984 357.933 7.984C359.256 7.984 360.408 8.25067 361.389 8.784C362.392 9.31733 363.192 9.98933 363.789 10.8V8.272H368.301V26H363.789V23.408C363.213 24.24 362.413 24.9333 361.389 25.488C360.387 26.0213 359.224 26.288 357.901 26.288C356.408 26.288 355.043 25.904 353.805 25.136C352.589 24.368 351.619 23.2907 350.893 21.904C350.189 20.496 349.837 18.8853 349.837 17.072ZM363.789 17.136C363.789 16.048 363.576 15.12 363.149 14.352C362.723 13.5627 362.147 12.9653 361.421 12.56C360.696 12.1333 359.917 11.92 359.085 11.92C358.253 11.92 357.485 12.1227 356.781 12.528C356.077 12.9333 355.501 13.5307 355.053 14.32C354.627 15.088 354.413 16.0053 354.413 17.072C354.413 18.1387 354.627 19.0773 355.053 19.888C355.501 20.6773 356.077 21.2853 356.781 21.712C357.507 22.1387 358.275 22.352 359.085 22.352C359.917 22.352 360.696 22.1493 361.421 21.744C362.147 21.3173 362.723 20.72 363.149 19.952C363.576 19.1627 363.789 18.224 363.789 17.136ZM379.461 26.288C378.01 26.288 376.709 26.032 375.557 25.52C374.405 24.9867 373.487 24.272 372.805 23.376C372.143 22.48 371.781 21.488 371.717 20.4H376.229C376.314 21.0827 376.645 21.648 377.221 22.096C377.818 22.544 378.554 22.768 379.429 22.768C380.282 22.768 380.943 22.5973 381.413 22.256C381.903 21.9147 382.149 21.4773 382.149 20.944C382.149 20.368 381.85 19.9413 381.253 19.664C380.677 19.3653 379.749 19.0453 378.469 18.704C377.146 18.384 376.058 18.0533 375.205 17.712C374.373 17.3707 373.647 16.848 373.029 16.144C372.431 15.44 372.133 14.4907 372.133 13.296C372.133 12.3147 372.41 11.4187 372.965 10.608C373.541 9.79733 374.351 9.15733 375.397 8.688C376.463 8.21867 377.711 7.984 379.141 7.984C381.253 7.984 382.938 8.51733 384.197 9.584C385.455 10.6293 386.149 12.048 386.277 13.84H381.989C381.925 13.136 381.626 12.5813 381.093 12.176C380.581 11.7493 379.887 11.536 379.013 11.536C378.202 11.536 377.573 11.6853 377.125 11.984C376.698 12.2827 376.485 12.6987 376.485 13.232C376.485 13.8293 376.783 14.288 377.381 14.608C377.978 14.9067 378.906 15.216 380.165 15.536C381.445 15.856 382.501 16.1867 383.333 16.528C384.165 16.8693 384.879 17.4027 385.477 18.128C386.095 18.832 386.415 19.7707 386.437 20.944C386.437 21.968 386.149 22.8853 385.573 23.696C385.018 24.5067 384.207 25.1467 383.141 25.616C382.095 26.064 380.869 26.288 379.461 26.288ZM395.33 11.952V20.528C395.33 21.1253 395.469 21.5627 395.746 21.84C396.045 22.096 396.536 22.224 397.218 22.224H399.298V26H396.482C392.706 26 390.818 24.1653 390.818 20.496V11.952H388.706V8.272H390.818V3.888H395.33V8.272H399.298V11.952H395.33ZM426.626 16.752C426.626 17.392 426.583 17.968 426.498 18.48H413.538C413.644 19.76 414.092 20.7627 414.882 21.488C415.671 22.2133 416.642 22.576 417.794 22.576C419.458 22.576 420.642 21.8613 421.346 20.432H426.178C425.666 22.1387 424.684 23.5467 423.234 24.656C421.783 25.744 420.002 26.288 417.89 26.288C416.183 26.288 414.647 25.9147 413.282 25.168C411.938 24.4 410.882 23.3227 410.114 21.936C409.367 20.5493 408.993 18.9493 408.993 17.136C408.993 15.3013 409.367 13.6907 410.114 12.304C410.86 10.9173 411.906 9.85067 413.25 9.104C414.594 8.35733 416.14 7.984 417.89 7.984C419.575 7.984 421.079 8.34667 422.402 9.072C423.746 9.79733 424.78 10.832 425.506 12.176C426.252 13.4987 426.626 15.024 426.626 16.752ZM421.986 15.472C421.964 14.32 421.548 13.4027 420.738 12.72C419.927 12.016 418.935 11.664 417.762 11.664C416.652 11.664 415.714 12.0053 414.946 12.688C414.199 13.3493 413.74 14.2773 413.57 15.472H421.986ZM434.376 10.832C434.952 10.0213 435.741 9.34933 436.744 8.816C437.768 8.26133 438.93 7.984 440.232 7.984C441.746 7.984 443.112 8.35733 444.328 9.104C445.565 9.85067 446.536 10.9173 447.24 12.304C447.965 13.6693 448.328 15.2587 448.328 17.072C448.328 18.8853 447.965 20.496 447.24 21.904C446.536 23.2907 445.565 24.368 444.328 25.136C443.112 25.904 441.746 26.288 440.232 26.288C438.93 26.288 437.778 26.0213 436.776 25.488C435.794 24.9547 434.994 24.2827 434.376 23.472V34.448H429.896V8.272H434.376V10.832ZM443.752 17.072C443.752 16.0053 443.528 15.088 443.08 14.32C442.653 13.5307 442.077 12.9333 441.352 12.528C440.648 12.1227 439.88 11.92 439.048 11.92C438.237 11.92 437.469 12.1333 436.744 12.56C436.04 12.9653 435.464 13.5627 435.016 14.352C434.589 15.1413 434.376 16.0693 434.376 17.136C434.376 18.2027 434.589 19.1307 435.016 19.92C435.464 20.7093 436.04 21.3173 436.744 21.744C437.469 22.1493 438.237 22.352 439.048 22.352C439.88 22.352 440.648 22.1387 441.352 21.712C442.077 21.2853 442.653 20.6773 443.08 19.888C443.528 19.0987 443.752 18.16 443.752 17.072ZM453.855 6.16C453.066 6.16 452.404 5.91467 451.871 5.424C451.359 4.912 451.103 4.28267 451.103 3.536C451.103 2.78933 451.359 2.17067 451.871 1.68C452.404 1.168 453.066 0.911999 453.855 0.911999C454.644 0.911999 455.295 1.168 455.807 1.68C456.34 2.17067 456.607 2.78933 456.607 3.536C456.607 4.28267 456.34 4.912 455.807 5.424C455.295 5.91467 454.644 6.16 453.855 6.16ZM456.063 8.272V26H451.583V8.272H456.063ZM467.273 26.288C465.823 26.288 464.521 26.032 463.369 25.52C462.217 24.9867 461.3 24.272 460.617 23.376C459.956 22.48 459.593 21.488 459.529 20.4H464.041C464.127 21.0827 464.457 21.648 465.033 22.096C465.631 22.544 466.367 22.768 467.241 22.768C468.095 22.768 468.756 22.5973 469.225 22.256C469.716 21.9147 469.961 21.4773 469.961 20.944C469.961 20.368 469.663 19.9413 469.065 19.664C468.489 19.3653 467.561 19.0453 466.281 18.704C464.959 18.384 463.871 18.0533 463.017 17.712C462.185 17.3707 461.46 16.848 460.841 16.144C460.244 15.44 459.945 14.4907 459.945 13.296C459.945 12.3147 460.223 11.4187 460.777 10.608C461.353 9.79733 462.164 9.15733 463.209 8.688C464.276 8.21867 465.524 7.984 466.953 7.984C469.065 7.984 470.751 8.51733 472.009 9.584C473.268 10.6293 473.961 12.048 474.089 13.84H469.801C469.737 13.136 469.439 12.5813 468.905 12.176C468.393 11.7493 467.7 11.536 466.825 11.536C466.015 11.536 465.385 11.6853 464.937 11.984C464.511 12.2827 464.297 12.6987 464.297 13.232C464.297 13.8293 464.596 14.288 465.193 14.608C465.791 14.9067 466.719 15.216 467.977 15.536C469.257 15.856 470.313 16.1867 471.145 16.528C471.977 16.8693 472.692 17.4027 473.289 18.128C473.908 18.832 474.228 19.7707 474.249 20.944C474.249 21.968 473.961 22.8853 473.385 23.696C472.831 24.5067 472.02 25.1467 470.953 25.616C469.908 26.064 468.681 26.288 467.273 26.288ZM485.799 26.288C484.092 26.288 482.556 25.9147 481.191 25.168C479.825 24.4 478.748 23.3227 477.959 21.936C477.191 20.5493 476.807 18.9493 476.807 17.136C476.807 15.3227 477.201 13.7227 477.991 12.336C478.801 10.9493 479.9 9.88267 481.287 9.136C482.673 8.368 484.22 7.984 485.927 7.984C487.633 7.984 489.18 8.368 490.567 9.136C491.953 9.88267 493.041 10.9493 493.831 12.336C494.641 13.7227 495.047 15.3227 495.047 17.136C495.047 18.9493 494.631 20.5493 493.799 21.936C492.988 23.3227 491.879 24.4 490.471 25.168C489.084 25.9147 487.527 26.288 485.799 26.288ZM485.799 22.384C486.609 22.384 487.367 22.192 488.071 21.808C488.796 21.4027 489.372 20.8053 489.799 20.016C490.225 19.2267 490.439 18.2667 490.439 17.136C490.439 15.4507 489.991 14.16 489.095 13.264C488.22 12.3467 487.143 11.888 485.863 11.888C484.583 11.888 483.505 12.3467 482.631 13.264C481.777 14.16 481.351 15.4507 481.351 17.136C481.351 18.8213 481.767 20.1227 482.599 21.04C483.452 21.936 484.519 22.384 485.799 22.384ZM497.181 17.072C497.181 15.28 497.533 13.6907 498.237 12.304C498.962 10.9173 499.944 9.85067 501.181 9.104C502.418 8.35733 503.794 7.984 505.309 7.984C506.461 7.984 507.56 8.24 508.605 8.752C509.65 9.24267 510.482 9.904 511.101 10.736V2.32H515.645V26H511.101V23.376C510.546 24.2507 509.768 24.9547 508.765 25.488C507.762 26.0213 506.6 26.288 505.277 26.288C503.784 26.288 502.418 25.904 501.181 25.136C499.944 24.368 498.962 23.2907 498.237 21.904C497.533 20.496 497.181 18.8853 497.181 17.072ZM511.133 17.136C511.133 16.048 510.92 15.12 510.493 14.352C510.066 13.5627 509.49 12.9653 508.765 12.56C508.04 12.1333 507.261 11.92 506.429 11.92C505.597 11.92 504.829 12.1227 504.125 12.528C503.421 12.9333 502.845 13.5307 502.397 14.32C501.97 15.088 501.757 16.0053 501.757 17.072C501.757 18.1387 501.97 19.0773 502.397 19.888C502.845 20.6773 503.421 21.2853 504.125 21.712C504.85 22.1387 505.618 22.352 506.429 22.352C507.261 22.352 508.04 22.1493 508.765 21.744C509.49 21.3173 510.066 20.72 510.493 19.952C510.92 19.1627 511.133 18.224 511.133 17.136ZM536.501 16.752C536.501 17.392 536.458 17.968 536.373 18.48H523.413C523.519 19.76 523.967 20.7627 524.757 21.488C525.546 22.2133 526.517 22.576 527.669 22.576C529.333 22.576 530.517 21.8613 531.221 20.432H536.053C535.541 22.1387 534.559 23.5467 533.109 24.656C531.658 25.744 529.877 26.288 527.765 26.288C526.058 26.288 524.522 25.9147 523.157 25.168C521.813 24.4 520.757 23.3227 519.989 21.936C519.242 20.5493 518.868 18.9493 518.868 17.136C518.868 15.3013 519.242 13.6907 519.989 12.304C520.735 10.9173 521.781 9.85067 523.125 9.104C524.469 8.35733 526.015 7.984 527.765 7.984C529.45 7.984 530.954 8.34667 532.277 9.072C533.621 9.79733 534.655 10.832 535.381 12.176C536.127 13.4987 536.501 15.024 536.501 16.752ZM531.861 15.472C531.839 14.32 531.423 13.4027 530.613 12.72C529.802 12.016 528.81 11.664 527.637 11.664C526.527 11.664 525.589 12.0053 524.821 12.688C524.074 13.3493 523.615 14.2773 523.445 15.472H531.861ZM546.555 26.288C545.104 26.288 543.803 26.032 542.651 25.52C541.499 24.9867 540.581 24.272 539.899 23.376C539.237 22.48 538.875 21.488 538.811 20.4H543.323C543.408 21.0827 543.739 21.648 544.315 22.096C544.912 22.544 545.648 22.768 546.523 22.768C547.376 22.768 548.037 22.5973 548.507 22.256C548.997 21.9147 549.243 21.4773 549.243 20.944C549.243 20.368 548.944 19.9413 548.347 19.664C547.771 19.3653 546.843 19.0453 545.562 18.704C544.24 18.384 543.152 18.0533 542.299 17.712C541.467 17.3707 540.741 16.848 540.123 16.144C539.525 15.44 539.227 14.4907 539.227 13.296C539.227 12.3147 539.504 11.4187 540.059 10.608C540.635 9.79733 541.445 9.15733 542.491 8.688C543.557 8.21867 544.805 7.984 546.235 7.984C548.347 7.984 550.032 8.51733 551.291 9.584C552.549 10.6293 553.243 12.048 553.371 13.84H549.083C549.019 13.136 548.72 12.5813 548.187 12.176C547.675 11.7493 546.981 11.536 546.107 11.536C545.296 11.536 544.667 11.6853 544.219 11.984C543.792 12.2827 543.579 12.6987 543.579 13.232C543.579 13.8293 543.877 14.288 544.475 14.608C545.072 14.9067 546 15.216 547.259 15.536C548.539 15.856 549.595 16.1867 550.427 16.528C551.259 16.8693 551.973 17.4027 552.571 18.128C553.189 18.832 553.509 19.7707 553.531 20.944C553.531 21.968 553.243 22.8853 552.667 23.696C552.112 24.5067 551.301 25.1467 550.235 25.616C549.189 26.064 547.963 26.288 546.555 26.288Z" fill="white"/>
</svg>
